<?xml version="1.0" encoding="UTF-8"?>
<svg width="90px" height="80px" viewBox="0 0 90 80" version="1.1" xmlns="http://www.w3.org/2000/svg" xmlns:xlink="http://www.w3.org/1999/xlink">
    <!-- Generator: Sketch 57.1 (83088) - https://sketch.com -->
    <title>noun_Business_1688816</title>
    <desc>Created with Sketch.</desc>
    <g id="Page-1" stroke="none" stroke-width="1" fill="none" fill-rule="evenodd">
        <g id="noun_Business_1688816">
            <g id="Group">
                <path d="M38.462,8.661 C36.404,8.661 34.221,9.641 33.523,11.753 L55.632,11.753 C54.993,9.501 52.683,8.661 50.658,8.661 L38.462,8.661 Z" id="Path"></path>
                <path d="M18.695,46.067 L33.755,45.791 C34.393,41.661 37.961,38.485 42.267,38.485 L46.851,38.485 C51.411,38.485 55.146,42.045 55.447,46.529 L71.258,46.066 C75.439,46.066 79.348,44.436 82.307,41.477 C85.267,38.542 86.896,34.635 86.896,30.473 C86.896,21.862 79.901,14.855 71.303,14.855 L18.695,14.855 C14.535,14.855 10.627,16.484 7.696,19.439 C4.733,22.402 3.102,26.32 3.102,30.473 C3.103,39.072 10.098,46.067 18.695,46.067 Z" id="Path"></path>
                <path d="M38.462,5.558 L50.658,5.558 C55.026,5.558 58.201,8.049 58.801,11.753 L60.956,11.753 C60.213,6.918 56.041,3.434 50.658,3.434 L38.462,3.434 C32.899,3.434 28.754,6.866 28.15,11.753 L30.328,11.753 C31.011,8.089 34.22,5.558 38.462,5.558 Z" id="Path"></path>
                <path d="M42.268,53.65 L46.852,53.65 C49.897,53.65 52.374,51.173 52.374,48.128 L52.374,47.111 C52.374,44.066 49.897,41.589 46.852,41.589 L42.268,41.589 C39.224,41.589 36.747,44.066 36.747,47.111 L36.747,48.128 C36.747,51.173 39.224,53.65 42.268,53.65 Z" id="Path"></path>
                <path d="M71.305,49.17 L55.336,49.639 C54.618,53.675 51.091,56.753 46.852,56.753 L42.268,56.753 C37.772,56.753 34.074,53.293 33.683,48.897 L18.724,49.17 C12.197,49.17 6.454,45.822 3.103,40.762 L3.103,65.522 C3.103,71.612 8.047,76.566 14.122,76.566 L75.879,76.566 C81.954,76.566 86.898,71.612 86.898,65.522 L86.898,40.762 C86.205,41.8 85.406,42.778 84.498,43.677 C80.957,47.217 76.269,49.17 71.305,49.17 Z" id="Path"></path>
                <path d="M71.305,11.753 L64.088,11.753 C63.31,5.237 57.696,0.331 50.658,0.331 L38.462,0.331 C31.214,0.331 25.65,5.16 25.026,11.753 L18.696,11.753 C13.701,11.753 9.013,13.707 5.499,17.251 C1.953,20.796 0,25.493 0,30.474 L0,65.521 C0,73.322 6.334,79.668 14.122,79.668 L75.879,79.668 C83.666,79.669 90,73.322 90,65.521 L90,30.474 C90,20.151 81.613,11.753 71.305,11.753 Z M38.462,3.434 L50.658,3.434 C56.041,3.434 60.213,6.918 60.956,11.753 L58.8,11.753 C58.2,8.049 55.025,5.558 50.657,5.558 L38.462,5.558 C34.22,5.558 31.011,8.089 30.328,11.753 L28.15,11.753 C28.753,6.866 32.899,3.434 38.462,3.434 Z M55.632,11.753 L33.523,11.753 C34.221,9.641 36.404,8.661 38.462,8.661 L50.658,8.661 C52.683,8.661 54.993,9.501 55.632,11.753 Z M7.696,19.44 C10.628,16.484 14.535,14.856 18.695,14.856 L71.304,14.856 C79.902,14.856 86.897,21.863 86.897,30.474 C86.897,34.636 85.268,38.543 82.308,41.478 C79.349,44.437 75.44,46.067 71.259,46.067 L55.448,46.53 C55.147,42.045 51.412,38.486 46.852,38.486 L42.268,38.486 C37.962,38.486 34.395,41.662 33.756,45.792 L18.696,46.068 C10.098,46.068 3.103,39.073 3.103,30.475 C3.103,26.322 4.733,22.404 7.696,19.44 Z M36.747,47.111 C36.747,44.066 39.224,41.589 42.268,41.589 L46.852,41.589 C49.897,41.589 52.374,44.066 52.374,47.111 L52.374,48.128 C52.374,51.173 49.897,53.65 46.852,53.65 L42.268,53.65 C39.224,53.65 36.747,51.173 36.747,48.128 L36.747,47.111 Z M86.897,65.521 C86.897,71.611 81.954,76.565 75.878,76.565 L14.122,76.565 C8.047,76.565 3.103,71.611 3.103,65.521 L3.103,40.761 C6.455,45.821 12.198,49.169 18.724,49.169 L33.683,48.896 C34.074,53.292 37.772,56.752 42.268,56.752 L46.852,56.752 C51.091,56.752 54.618,53.675 55.336,49.638 L71.305,49.169 C76.27,49.169 80.957,47.216 84.498,43.676 C85.405,42.777 86.205,41.799 86.898,40.761 L86.898,65.521 L86.897,65.521 Z" id="Shape" fill="#000000" fill-rule="nonzero"></path>
            </g>
        </g>
    </g>
</svg>