<?xml version="1.0" encoding="UTF-8"?>
<svg width="82px" height="80px" viewBox="0 0 82 80" version="1.1" xmlns="http://www.w3.org/2000/svg" xmlns:xlink="http://www.w3.org/1999/xlink">
    <!-- Generator: Sketch 57.1 (83088) - https://sketch.com -->
    <title>Shape</title>
    <desc>Created with Sketch.</desc>
    <g id="Page-1" stroke="none" stroke-width="1" fill="none" fill-rule="evenodd">
        <g id="noun_leadership_789452" transform="translate(-1.000000, 0.000000)" fill="#000000" fill-rule="nonzero">
            <path d="M75,59.53 L75,48.31 C75,45.3926186 73.8410748,42.5947256 71.7781746,40.5318254 C69.7152744,38.4689252 66.9173814,37.31 64,37.31 L44,37.31 L44,20.47 C49.0299264,19.4432706 52.4653391,14.7746026 51.9493615,9.66695141 C51.433384,4.55930024 47.1336472,0.672041029 42,0.672041029 C36.8663528,0.672041029 32.566616,4.55930024 32.0506385,9.66695141 C31.5346609,14.7746026 34.9700736,19.4432706 40,20.47 L40,37.34 L20,37.34 C13.9248678,37.34 9,42.2648678 9,48.34 L9,59.53 C3.97007356,60.5567294 0.534660921,65.2253974 1.05063847,70.3330486 C1.56661602,75.4406998 5.86635282,79.327959 11,79.327959 C16.1336472,79.327959 20.433384,75.4406998 20.9493615,70.3330486 C21.4653391,65.2253974 18.0299264,60.5567294 13,59.53 L13,48.31 C13,44.4440068 16.1340068,41.31 20,41.31 L40,41.31 L40,59.48 C34.9700736,60.5067294 31.5346609,65.1753974 32.0506385,70.2830486 C32.566616,75.3906998 36.8663528,79.277959 42,79.277959 C47.1336472,79.277959 51.433384,75.3906998 51.9493615,70.2830486 C52.4653391,65.1753974 49.0299264,60.5067294 44,59.48 L44,41.34 L64,41.34 C67.8659932,41.34 71,44.4740068 71,48.34 L71,59.53 C65.9700736,60.5567294 62.5346609,65.2253974 63.0506385,70.3330486 C63.566616,75.4406998 67.8663528,79.327959 73,79.327959 C78.1336472,79.327959 82.433384,75.4406998 82.9493615,70.3330486 C83.4653391,65.2253974 80.0299264,60.5567294 75,59.53 Z M17,69.34 C17,72.6537085 14.3137085,75.34 11,75.34 C7.6862915,75.34 5,72.6537085 5,69.34 C5,66.0262915 7.6862915,63.34 11,63.34 C14.3137085,63.34 17,66.0262915 17,69.34 L17,69.34 Z M48,69.28 C48,72.5937085 45.3137085,75.28 42,75.28 C38.6862915,75.28 36,72.5937085 36,69.28 C36,65.9662915 38.6862915,63.28 42,63.28 C45.3137085,63.28 48,65.9662915 48,69.28 L48,69.28 Z M42,16.67 C38.6862915,16.67 36,13.9837085 36,10.67 C36,7.3562915 38.6862915,4.67 42,4.67 C45.3137085,4.67 48,7.3562915 48,10.67 C48,12.2612989 47.367859,13.7874224 46.2426407,14.9126407 C45.1174224,16.037859 43.5912989,16.67 42,16.67 L42,16.67 Z M73,75.35 C69.6862915,75.35 67,72.6637085 67,69.35 C67,66.0362915 69.6862915,63.35 73,63.35 C76.3137085,63.35 79,66.0362915 79,69.35 C79,72.6637085 76.3137085,75.35 73,75.35 Z" id="Shape"></path>
        </g>
    </g>
</svg>