<svg width="182" height="182" viewBox="0 0 182 182" fill="none" xmlns="http://www.w3.org/2000/svg">
<path d="M0 3.00001C0 1.34315 1.34315 0 3 0H17C18.6569 0 20 1.34315 20 3V179C20 180.657 18.6569 182 17 182H3C1.34315 182 0 180.657 0 179V3.00001Z" fill="#CC1100"/>
<path d="M0 165C0 163.343 1.34315 162 3 162H41C42.6569 162 44 163.343 44 165V179C44 180.657 42.6569 182 41 182H3C1.34315 182 0 180.657 0 179V165Z" fill="#CC1100"/>
<path d="M0 3.00001C0 1.34315 1.34315 0 3 0H41C42.6569 0 44 1.34315 44 3V17C44 18.6569 42.6569 20 41 20H3C1.34315 20 0 18.6569 0 17V3.00001Z" fill="#CC1100"/>
<path d="M182 179C182 180.657 180.657 182 179 182H165C163.343 182 162 180.657 162 179V3.00001C162 1.34315 163.343 0 165 0H179C180.657 0 182 1.34315 182 3V179Z" fill="#CC1100"/>
<path d="M182 179C182 180.657 180.657 182 179 182H141C139.343 182 138 180.657 138 179V165C138 163.343 139.343 162 141 162H179C180.657 162 182 163.343 182 165V179Z" fill="#CC1100"/>
<path d="M182 17C182 18.6569 180.657 20 179 20H141C139.343 20 138 18.6569 138 17V3C138 1.34315 139.343 0 141 0H179C180.657 0 182 1.34315 182 3V17Z" fill="#CC1100"/>
<path d="M53.5023 144V39H71.5023V87L117.102 39H139.002L89.2023 89.55L140.952 144H117.102L71.5023 94.65V144H53.5023Z" fill="#CC1100"/>
<path d="M91 39H76V144H91V39Z" fill="#CC1100"/>
</svg>
