<svg width="465" height="182" viewBox="0 0 465 182" fill="none" xmlns="http://www.w3.org/2000/svg">
<rect width="20" height="182" rx="3" fill="white"/>
<rect width="44" height="20" rx="3" fill="white"/>
<rect y="162" width="44" height="20" rx="3" fill="white"/>
<rect x="465" y="182" width="20" height="182" rx="3" transform="rotate(-180 465 182)" fill="white"/>
<rect x="465" y="182" width="44" height="20" rx="3" transform="rotate(-180 465 182)" fill="white"/>
<rect x="465" y="20" width="44" height="20" rx="3" transform="rotate(-180 465 20)" fill="white"/>
<path d="M54.4337 121V61.5H69.0537V87.34L91.2387 61.5H108.664L82.6537 89.465L110.194 121H91.0687L69.0537 93.97V121H54.4337ZM126.844 121.68C122.424 121.68 118.798 120.462 115.964 118.025C113.131 115.532 111.714 112.33 111.714 108.42C111.714 104.397 113.216 101.28 116.219 99.07C119.223 96.8033 123.416 95.67 128.799 95.67C130.386 95.67 132.001 95.84 133.644 96.18C135.288 96.4633 137.073 96.9733 138.999 97.71V94.14C138.999 92.0433 138.263 90.4567 136.789 89.38C135.373 88.3033 133.219 87.765 130.329 87.765C128.686 87.765 126.844 88.02 124.804 88.53C122.821 88.9833 120.554 89.7483 118.004 90.825L113.244 81.22C116.814 79.6333 120.243 78.4433 123.529 77.65C126.873 76.8567 130.159 76.46 133.389 76.46C139.453 76.46 144.156 77.905 147.499 80.795C150.899 83.685 152.599 87.7367 152.599 92.95V121H138.999V117.175C137.073 118.762 135.146 119.923 133.219 120.66C131.293 121.34 129.168 121.68 126.844 121.68ZM124.379 108.165C124.379 109.582 124.974 110.687 126.164 111.48C127.354 112.217 128.998 112.585 131.094 112.585C132.511 112.585 133.871 112.415 135.174 112.075C136.534 111.678 137.809 111.112 138.999 110.375V104.765C137.753 104.482 136.478 104.255 135.174 104.085C133.928 103.915 132.681 103.83 131.434 103.83C129.168 103.83 127.411 104.198 126.164 104.935C124.974 105.672 124.379 106.748 124.379 108.165ZM167.513 107.485V87.765H159.013V77.14H167.513V64.985L181.283 62.18V77.14H193.013V87.765H181.283V104.765C181.283 106.692 181.708 108.052 182.558 108.845C183.465 109.638 184.966 110.035 187.063 110.035C187.856 110.035 188.65 109.978 189.443 109.865C190.236 109.752 191.313 109.497 192.673 109.1V120.235C191.426 120.632 189.896 120.943 188.083 121.17C186.27 121.453 184.655 121.595 183.238 121.595C178.081 121.595 174.171 120.405 171.508 118.025C168.845 115.645 167.513 112.132 167.513 107.485ZM213.754 121.68C209.334 121.68 205.707 120.462 202.874 118.025C200.04 115.532 198.624 112.33 198.624 108.42C198.624 104.397 200.125 101.28 203.129 99.07C206.132 96.8033 210.325 95.67 215.709 95.67C217.295 95.67 218.91 95.84 220.554 96.18C222.197 96.4633 223.982 96.9733 225.909 97.71V94.14C225.909 92.0433 225.172 90.4567 223.699 89.38C222.282 88.3033 220.129 87.765 217.239 87.765C215.595 87.765 213.754 88.02 211.714 88.53C209.73 88.9833 207.464 89.7483 204.914 90.825L200.154 81.22C203.724 79.6333 207.152 78.4433 210.439 77.65C213.782 76.8567 217.069 76.46 220.299 76.46C226.362 76.46 231.065 77.905 234.409 80.795C237.809 83.685 239.509 87.7367 239.509 92.95V121H225.909V117.175C223.982 118.762 222.055 119.923 220.129 120.66C218.202 121.34 216.077 121.68 213.754 121.68ZM211.289 108.165C211.289 109.582 211.884 110.687 213.074 111.48C214.264 112.217 215.907 112.585 218.004 112.585C219.42 112.585 220.78 112.415 222.084 112.075C223.444 111.678 224.719 111.112 225.909 110.375V104.765C224.662 104.482 223.387 104.255 222.084 104.085C220.837 103.915 219.59 103.83 218.344 103.83C216.077 103.83 214.32 104.198 213.074 104.935C211.884 105.672 211.289 106.748 211.289 108.165ZM249.887 139.275V77.14H263.487V83.26C264.904 81.3333 266.774 79.8033 269.097 78.67C271.421 77.48 273.886 76.885 276.492 76.885C279.156 76.885 281.677 77.48 284.057 78.67C286.437 79.8033 288.477 81.39 290.177 83.43C291.934 85.4133 293.322 87.765 294.342 90.485C295.362 93.205 295.872 96.095 295.872 99.155C295.872 102.215 295.334 105.105 294.257 107.825C293.237 110.488 291.792 112.812 289.922 114.795C288.109 116.778 285.956 118.365 283.462 119.555C280.969 120.688 278.306 121.255 275.472 121.255C273.092 121.255 270.882 120.83 268.842 119.98C266.802 119.073 265.074 117.798 263.657 116.155V139.275H249.887ZM271.902 88.275C270.202 88.275 268.672 88.5867 267.312 89.21C265.952 89.7767 264.734 90.655 263.657 91.845V106.465C264.734 107.542 265.981 108.392 267.397 109.015C268.814 109.638 270.316 109.95 271.902 109.95C274.906 109.95 277.399 108.93 279.382 106.89C281.366 104.793 282.357 102.187 282.357 99.07C282.357 96.01 281.337 93.46 279.297 91.42C277.314 89.3233 274.849 88.275 271.902 88.275ZM318.019 77.14V102.725C318.019 105.162 318.671 107.145 319.974 108.675C321.334 110.148 323.119 110.885 325.329 110.885C326.803 110.885 328.134 110.602 329.324 110.035C330.571 109.412 331.676 108.477 332.639 107.23V77.14H346.409V121H332.639V113.86C330.939 116.41 328.899 118.365 326.519 119.725C324.196 121.028 321.618 121.68 318.784 121.68C314.534 121.68 311.049 120.292 308.329 117.515C305.609 114.682 304.249 111.083 304.249 106.72V77.14H318.019ZM370.903 58.1V121H357.133V60.225L370.903 58.1ZM387.401 107.485V87.765H378.901V77.14H387.401V64.985L401.171 62.18V77.14H412.901V87.765H401.171V104.765C401.171 106.692 401.596 108.052 402.446 108.845C403.352 109.638 404.854 110.035 406.951 110.035C407.744 110.035 408.537 109.978 409.331 109.865C410.124 109.752 411.201 109.497 412.561 109.1V120.235C411.314 120.632 409.784 120.943 407.971 121.17C406.157 121.453 404.542 121.595 403.126 121.595C397.969 121.595 394.059 120.405 391.396 118.025C388.732 115.645 387.401 112.132 387.401 107.485Z" fill="white"/>
</svg>
