<?xml version="1.0" encoding="UTF-8"?>
<svg width="920px" height="710px" viewBox="0 0 920 710" version="1.1" xmlns="http://www.w3.org/2000/svg" xmlns:xlink="http://www.w3.org/1999/xlink">
    <!-- Generator: Sketch 57.1 (83088) - https://sketch.com -->
    <title>Group</title>
    <desc>Created with Sketch.</desc>
    <g id="Page-1" stroke="none" stroke-width="1" fill="none" fill-rule="evenodd">
        <g id="noun_news_1901962" fill="#000000" fill-rule="nonzero">
            <g id="Group">
                <path d="M879.5,116.1 C879.5,131.5 879.5,146.9 879.5,162.3 C879.5,199.2 879.5,236.1 879.5,273 C879.5,317.9 879.5,362.7 879.5,407.6 C879.5,447 879.5,486.3 879.5,525.7 C879.5,545.7 879.5,565.7 879.5,585.6 C879.5,586.1 879.5,586.5 879.5,587 C879.5,587.7 879.5,588.5 879.5,589.2 C879.5,591.3 879.4,593.4 879.2,595.5 C879.1,596.4 879,597.3 878.9,598.2 C878.5,602 879.5,595.1 879,597.6 C877.6,605.2 875.5,612.3 873,619.6 C872.1,622.1 874.8,616.1 873.5,618.5 C873,619.5 872.6,620.5 872.1,621.5 C871.3,623.1 870.5,624.6 869.7,626.2 C867.8,629.6 865.7,633 863.4,636.2 C863.1,636.6 862.1,638.3 861.9,638.3 C862,638.3 865,634.5 862.6,637.3 C861.5,638.6 860.4,640 859.2,641.3 C856.6,644.2 853.8,647 850.8,649.5 C850.2,650 847.6,652.9 846.8,652.9 C846.9,652.9 850.8,650 847.7,652.2 C847,652.7 846.3,653.2 845.6,653.7 C842.4,655.9 839,658 835.5,659.9 C833.9,660.7 832.4,661.5 830.8,662.3 C830.4,662.5 828.6,663.5 828.4,663.4 C829,663.6 832.3,661.9 829.5,662.9 C825.7,664.3 822,665.6 818.1,666.6 C816.5,667 808.7,669.8 807.5,668.8 C808,669.2 811.8,668.3 808.7,668.6 C807.8,668.7 806.9,668.8 806,668.9 C803.7,669.1 801.4,669.2 799,669.2 C787.5,669.4 776.1,669.2 764.6,669.2 C735.6,669.2 706.7,669.2 677.7,669.2 C637.2,669.2 596.8,669.2 556.3,669.2 C511.2,669.2 466.2,669.2 421.1,669.2 C377.9,669.2 334.8,669.2 291.6,669.2 C256.8,669.2 222,669.2 187.3,669.2 C167.8,669.2 148.3,669.2 128.8,669.2 C127.1,669.2 125.3,669.2 123.6,669.2 C123.3,669.2 122.9,669.2 122.6,669.2 C121.6,669.2 120.7,669.2 119.7,669.2 C117.8,669.2 116,669 114.1,668.9 C113.2,668.8 112.3,668.7 111.4,668.6 C106.6,668.2 116,669.5 111.3,668.6 C107.7,667.9 104.2,667.2 100.7,666.3 C99,665.8 97.3,665.3 95.6,664.7 C94.5,664.3 89.9,663.4 89.4,662.4 C89.4,662.5 94,664.5 90.5,662.8 C89.7,662.4 88.9,662.1 88.1,661.7 C86.5,660.9 85,660.1 83.4,659.3 C80,657.4 76.6,655.3 73.4,653 C73,652.7 71.4,651.7 71.3,651.5 C71.5,652.3 74.4,654 72.3,652.2 C71,651.1 69.6,650 68.3,648.8 C65.4,646.2 62.6,643.4 60.1,640.4 C59.5,639.7 56.7,637.2 56.7,636.4 C56.7,637.2 59.1,639.6 57.4,637.3 C56.9,636.6 56.4,635.9 55.9,635.2 C53.7,632 51.6,628.6 49.7,625.1 C48.9,623.5 48.1,622 47.3,620.4 C47.3,620.4 46.1,618.2 46.2,618 C46,618.6 47.7,621.8 46.7,619.1 C45.3,615.3 44,611.6 43,607.7 C42.5,606 42.1,604.2 41.8,602.4 C41.6,601.5 41.4,600.6 41.3,599.7 C41.2,599.3 40.4,594.8 41,598.3 C41.6,601.5 40.8,595.6 40.7,594.8 C40.5,592.7 40.5,590.6 40.4,588.5 C40.4,587.2 40.4,585.9 40.4,584.5 C40.4,577.9 40.4,571.2 40.4,564.6 C40.4,535.9 40.4,507.2 40.4,478.4 C40.4,436.9 40.4,395.3 40.4,353.8 C40.4,308.8 40.4,263.8 40.4,218.8 C40.4,179.7 40.4,140.6 40.4,101.5 C40.4,77.6 40.4,53.7 40.4,29.8 C40.4,26.6 40.4,23.3 40.4,20.1 C33.7,26.8 27.1,33.4 20.4,40.1 C43.1,40.1 65.8,40.1 88.4,40.1 C142.5,40.1 196.6,40.1 250.7,40.1 C316.5,40.1 382.2,40.1 448,40.1 C504.5,40.1 561.1,40.1 617.6,40.1 C645.1,40.1 672.8,41 700.3,40.1 C700.7,40.1 701,40.1 701.4,40.1 C694.7,33.4 688.1,26.8 681.4,20.1 C681.4,27.8 681.4,35.6 681.4,43.3 C681.4,63.9 681.4,84.5 681.4,105 C681.4,134.1 681.4,163.2 681.4,192.3 C681.4,225.9 681.4,259.5 681.4,293.1 C681.4,327.2 681.4,361.4 681.4,395.5 C681.4,425.7 681.4,455.9 681.4,486.1 C681.4,508.4 681.4,530.8 681.4,553.1 C681.4,563.5 681.5,573.9 681.4,584.3 C681.2,598.9 682.6,613.5 686.1,627.6 C694.7,663.1 717.7,693.5 753.4,704.8 C764.2,708.2 775.9,709.6 787.2,709.700791 C797.7,709.8 807.7,700.4 807.2,689.7 C806.7,678.7 798.4,669.9 787.2,669.7 C784.6,669.7 782.1,669.6 779.5,669.4 C778.3,669.3 777.1,669.2 775.8,669.1 C772.4,668.8 777.3,669.3 777.6,669.4 C776.9,669.2 776,669.2 775.3,669 C770.8,668.2 766.4,667.1 762,665.6 C761,665.3 760.1,664.8 759.1,664.5 C757.1,663.9 761.7,665.7 761.5,665.6 C761,665.3 760.2,665.1 759.7,664.8 C757.8,663.9 755.9,662.9 754.1,661.9 C752.5,661 750.9,660 749.3,658.9 C748.5,658.4 747.8,657.8 747,657.3 C745.3,656.2 749.5,659.3 749.2,659 C748.7,658.5 748,658 747.5,657.6 C744.7,655.2 742.1,652.6 739.7,649.8 C739.1,649.1 738.6,648.5 738,647.8 C735.9,645.4 740.8,651.7 739,649.1 C737.9,647.5 736.7,645.9 735.6,644.2 C733.7,641.2 732.1,638.2 730.5,635 C730.1,634.1 729.7,633.3 729.3,632.4 C727.9,629.4 729.6,632.8 730,634.2 C729.5,632.6 728.7,630.9 728.1,629.3 C726,623.2 724.3,617 723.1,610.7 C722.8,609.2 722.6,607.8 722.3,606.3 C722.2,605.6 722.1,605 722,604.3 C721.4,600.8 722.6,609.4 722.3,606.8 C722,604.3 721.7,601.8 721.5,599.3 C721.1,594.6 721.1,589.9 721.2,585.2 C721.3,577.2 721.2,569.2 721.2,561.2 C721.2,540.8 721.2,520.4 721.2,500 C721.2,471.2 721.2,442.3 721.2,413.5 C721.2,380.3 721.2,347 721.2,313.8 C721.2,280.1 721.2,246.4 721.2,212.8 C721.2,182.7 721.2,152.6 721.2,122.5 C721.2,99.9 721.2,77.4 721.2,54.8 C721.2,43.8 721.4,32.8 721.2,21.8 C721.2,21.3 721.2,20.8 721.2,20.4 C721.2,9.6 712,0.4 701.2,0.4 C678.5,0.4 655.8,0.4 633.2,0.4 C579.1,0.4 525,0.4 470.9,0.4 C405.1,0.4 339.4,0.4 273.6,0.4 C217.1,0.4 160.5,0.4 104,0.4 C76.5,0.4 48.8,-0.2 21.3,0.4 C20.9,0.4 20.6,0.4 20.2,0.4 C9.4,0.4 0.2,9.6 0.2,20.4 C0.2,33.7 0.2,47 0.2,60.3 C0.2,93.8 0.2,127.2 0.2,160.7 C0.2,204.5 0.2,248.2 0.2,292 C0.2,336.8 0.2,381.5 0.2,426.3 C0.2,462.1 0.2,497.9 0.2,533.8 C0.2,551.3 0.2,568.8 0.2,586.3 C0.2,609.6 6.3,632.9 18.9,652.6 C37.3,681.4 67.7,702.6 101.7,707.8 C117.9,710.3 134.4,709.6 150.7,709.6 C179,709.6 207.2,709.6 235.5,709.6 C275.6,709.6 315.7,709.6 355.8,709.6 C401.3,709.6 446.7,709.6 492.2,709.6 C536.1,709.6 579.9,709.6 623.8,709.6 C659.2,709.6 694.6,709.6 730.1,709.6 C750.2,709.6 770.3,709.6 790.5,709.6 C796.8,709.6 803,709.6 809.2,708.9 C845.3,704.7 876.6,686.5 897.8,656.9 C912.3,636.6 919.4,611.4 919.4,586.5 C919.4,580 919.4,573.6 919.4,567.1 C919.4,535.8 919.4,504.4 919.4,473.1 C919.4,428.9 919.4,384.8 919.4,340.6 C919.4,297.7 919.4,254.9 919.4,212 C919.4,184.1 919.4,156.2 919.4,128.3 C919.4,124.4 919.4,120.5 919.4,116.6 C919.4,106.1 910.2,96.1 899.4,96.6 C888.7,96.6 879.5,104.9 879.5,116.1 L879.5,116.1 Z" id="Path"></path>
                <path d="M777.8,117.4 C777.8,133.6 777.8,149.8 777.8,166 C777.8,204.7 777.8,243.4 777.8,282.2 C777.8,329 777.8,375.8 777.8,422.6 C777.8,463.2 777.8,503.8 777.8,544.4 C777.8,564 777.3,583.7 777.8,603.3 C777.8,603.6 777.8,603.8 777.8,604.1 C777.8,614.6 787,624.6 797.8,624.1 C808.6,623.6 817.8,615.3 817.8,604.1 C817.8,587.9 817.8,571.7 817.8,555.5 C817.8,516.8 817.8,478.1 817.8,439.3 C817.8,392.5 817.8,345.7 817.8,298.9 C817.8,258.3 817.8,217.7 817.8,177.1 C817.8,157.5 818.3,137.8 817.8,118.2 C817.8,117.9 817.8,117.7 817.8,117.4 C817.8,106.9 808.6,96.9 797.8,97.4 C786.9,97.9 777.8,106.2 777.8,117.4 L777.8,117.4 Z" id="Path"></path>
                <path d="M113.5,187.1 C129.9,187.1 146.2,187.1 162.6,187.1 C201.9,187.1 241.1,187.1 280.4,187.1 C327.9,187.1 375.4,187.1 422.9,187.1 C463.9,187.1 505,187.1 546,187.1 C565.9,187.1 585.8,187.6 605.7,187.1 C606,187.1 606.3,187.1 606.6,187.1 C617.1,187.1 627.1,177.9 626.6,167.1 C626.1,156.3 617.8,147.1 606.6,147.1 C590.2,147.1 573.9,147.1 557.5,147.1 C518.2,147.1 479,147.1 439.7,147.1 C392.2,147.1 344.7,147.1 297.2,147.1 C256.2,147.1 215.1,147.1 174.1,147.1 C154.2,147.1 134.3,146.6 114.4,147.1 C114.1,147.1 113.8,147.1 113.5,147.1 C103,147.1 93,156.3 93.5,167.1 C94,178 102.3,187.1 113.5,187.1 L113.5,187.1 Z" id="Path"></path>
                <path d="M606.5,269.1 C590.1,269.1 573.8,269.1 557.4,269.1 C518.1,269.1 478.9,269.1 439.6,269.1 C392.1,269.1 344.6,269.1 297.1,269.1 C256.1,269.1 215,269.1 174,269.1 C154.1,269.1 134.2,268.6 114.3,269.1 C114,269.1 113.7,269.1 113.4,269.1 C102.9,269.1 92.9,278.3 93.4,289.1 C93.9,299.9 102.2,309.1 113.4,309.1 C129.8,309.1 146.1,309.1 162.5,309.1 C201.8,309.1 241,309.1 280.3,309.1 C327.8,309.1 375.3,309.1 422.8,309.1 C463.8,309.1 504.9,309.1 545.9,309.1 C565.8,309.1 585.7,309.6 605.6,309.1 C605.9,309.1 606.2,309.1 606.5,309.1 C617,309.1 627,299.9 626.5,289.1 C626,278.3 617.7,269.1 606.5,269.1 L606.5,269.1 Z" id="Path"></path>
                <path d="M113.5,431.1 C148.1,431.1 182.8,431.1 217.4,431.1 C272.2,431.1 327,431.1 381.7,431.1 C394.3,431.1 406.9,431.1 419.5,431.1 C430,431.1 440,421.9 439.5,411.1 C439,400.3 430.7,391.1 419.5,391.1 C384.9,391.1 350.2,391.1 315.6,391.1 C260.8,391.1 206,391.1 151.3,391.1 C138.7,391.1 126.1,391.1 113.5,391.1 C103,391.1 93,400.3 93.5,411.1 C94,422 102.3,431.1 113.5,431.1 L113.5,431.1 Z" id="Path"></path>
                <path d="M419.5,513.2 C384.9,513.2 350.2,513.2 315.6,513.2 C260.8,513.2 206,513.2 151.3,513.2 C138.7,513.2 126.1,513.2 113.5,513.2 C103,513.2 93,522.4 93.5,533.2 C94,544 102.3,553.2 113.5,553.2 C148.1,553.2 182.8,553.2 217.4,553.2 C272.2,553.2 327,553.2 381.7,553.2 C394.3,553.2 406.9,553.2 419.5,553.2 C430,553.2 440,544 439.5,533.2 C439,522.3 430.7,513.2 419.5,513.2 L419.5,513.2 Z" id="Path"></path>
            </g>
        </g>
    </g>
</svg>